<?xml version="1.0" standalone="no"?>
<!DOCTYPE svg PUBLIC "-//W3C//DTD SVG 20010904//EN"
 "http://www.w3.org/TR/2001/REC-SVG-20010904/DTD/svg10.dtd">
<svg version="1.0" xmlns="http://www.w3.org/2000/svg"
 width="225.000000pt" height="225.000000pt" viewBox="0 0 225.000000 225.000000"
 preserveAspectRatio="xMidYMid meet">
<metadata>
Created by potrace 1.14, written by Peter Selinger 2001-2017
</metadata>
<g transform="translate(0.000000,225.000000) scale(0.100000,-0.100000)"
fill="#000000" stroke="none">
<path d="M1110 2180 c0 -4 -11 -6 -24 -5 -15 2 -36 -8 -55 -26 -18 -16 -29
-29 -25 -29 3 0 1 -6 -5 -13 -6 -8 -8 -17 -4 -20 3 -4 1 -7 -5 -7 -7 0 -12 -7
-12 -15 0 -18 2 -18 -82 -20 -42 -1 -68 3 -68 9 0 8 -3 8 -8 1 -10 -14 -125
-14 -134 -1 -6 8 -8 8 -8 0 0 -13 -88 -13 -109 0 -10 6 -12 5 -7 -2 10 -16
-16 -15 -33 1 -8 6 -11 7 -8 1 4 -7 -13 -10 -53 -9 -33 1 -60 -2 -60 -7 0 -4
-10 -8 -23 -8 -22 0 -75 -50 -87 -81 -10 -28 -11 -1759 0 -1759 5 0 7 -7 4
-15 -4 -8 -1 -15 5 -15 6 0 10 -3 9 -7 -3 -15 14 -43 23 -37 5 3 9 0 9 -5 0
-6 7 -11 15 -11 8 0 15 -4 15 -8 0 -12 32 -14 247 -16 128 -1 203 -5 203 -11
0 -7 3 -7 8 0 9 13 225 13 234 0 5 -7 8 -7 8 0 0 6 72 10 195 10 123 0 195 -4
195 -10 0 -6 3 -6 8 0 9 13 85 13 94 0 5 -7 8 -6 8 1 0 11 99 12 117 1 7 -4
14 -3 17 1 6 10 68 8 87 -3 7 -5 10 -4 6 2 -6 9 15 16 81 25 6 1 12 7 12 15 0
7 4 13 9 13 12 0 40 45 45 72 3 13 5 25 6 28 5 13 2 82 -3 87 -4 3 -2 14 3 24
7 12 7 20 0 24 -7 4 -7 13 0 26 8 14 7 19 -1 19 -9 0 -9 3 0 14 8 10 9 16 1
21 -7 4 -7 12 0 26 8 14 7 19 -1 19 -9 0 -9 3 0 14 8 10 9 16 1 21 -7 4 -7 12
0 26 8 14 7 19 -1 19 -9 0 -9 3 0 14 8 10 9 16 1 21 -7 4 -7 12 0 26 8 14 7
19 -1 19 -9 0 -9 3 0 14 8 10 9 16 1 21 -7 4 -7 12 0 26 8 14 7 19 -1 19 -9 0
-9 3 0 14 8 10 9 16 1 21 -7 4 -7 12 0 26 8 13 7 19 0 19 -7 0 -8 6 0 19 6 12
6 22 1 26 -6 3 -6 17 -1 34 4 15 4 34 0 41 -5 7 -4 24 0 36 6 15 5 26 -1 30
-7 4 -7 10 0 18 6 7 8 16 4 20 -9 9 -11 46 -3 46 9 0 6 32 -4 48 -4 7 -2 12 4
12 6 0 8 5 4 12 -10 16 -13 48 -4 48 4 0 7 7 7 15 0 8 -4 15 -9 15 -5 0 -4 8
1 19 6 10 7 21 4 25 -9 9 -11 46 -3 46 9 0 6 32 -4 48 -4 7 -2 12 4 12 6 0 8
5 4 12 -11 17 -12 48 -3 48 9 0 7 20 -4 37 -4 6 -3 14 3 18 6 4 7 12 3 18 -9
15 -11 47 -3 47 8 0 6 37 -3 46 -4 4 -2 13 4 21 8 8 8 13 1 13 -6 0 -9 8 -7
18 2 9 4 17 5 17 7 0 5 47 -3 52 -5 3 -3 9 4 14 9 6 10 9 2 9 -8 0 -9 9 -3 30
5 19 5 30 -1 30 -6 0 -7 4 -4 10 11 17 14 50 5 50 -5 0 -5 13 0 30 5 19 5 30
-1 30 -6 0 -7 5 -4 10 3 6 1 10 -5 10 -7 0 -10 6 -8 12 10 30 -77 89 -137 93
-11 0 -25 4 -31 8 -6 3 -14 3 -18 0 -11 -12 -45 -13 -51 -2 -5 6 -11 7 -18 0
-18 -14 -29 -14 -38 1 -6 9 -11 10 -16 2 -5 -5 -19 -10 -33 -10 -22 0 -25 -4
-23 -30 1 -21 -3 -31 -13 -31 -8 0 -14 5 -14 10 0 5 -6 4 -13 -2 -19 -15 -29
-3 -17 20 8 14 6 21 -10 29 -11 6 -20 8 -20 4 0 -3 -6 -1 -13 5 -8 6 -16 8
-19 6 -12 -12 -48 -13 -48 -2 0 8 -3 8 -8 2 -10 -14 -32 -17 -32 -4 0 8 -5 8
-15 -1 -12 -10 -15 -10 -15 1 0 11 -2 11 -8 2 -4 -7 -18 -11 -31 -8 -29 5 -32
8 -34 34 -1 11 -5 21 -9 21 -4 0 -8 5 -8 10 0 6 -9 19 -20 30 -11 11 -24 20
-30 20 -5 0 -10 4 -10 8 0 5 -6 9 -12 10 -7 0 -25 3 -40 5 -16 2 -28 1 -28 -3z"/>
</g>
</svg>
